<?xml version="1.0" encoding="UTF-8" standalone="no"?>
<svg
   width="16"
   height="16"
   version="1.1"
   id="svg1"
   sodipodi:docname="ShooterKit2D.svg"
   inkscape:version="1.3 (0e150ed6c4, 2023-07-21)"
   xml:space="preserve"
   xmlns:inkscape="http://www.inkscape.org/namespaces/inkscape"
   xmlns:sodipodi="http://sodipodi.sourceforge.net/DTD/sodipodi-0.dtd"
   xmlns="http://www.w3.org/2000/svg"
   xmlns:svg="http://www.w3.org/2000/svg"><defs
     id="defs1" /><sodipodi:namedview
     id="namedview1"
     pagecolor="#505050"
     bordercolor="#eeeeee"
     borderopacity="1"
     inkscape:showpageshadow="0"
     inkscape:pageopacity="0"
     inkscape:pagecheckerboard="0"
     inkscape:deskcolor="#505050"
     inkscape:zoom="26.03125"
     inkscape:cx="10.621849"
     inkscape:cy="12.427371"
     inkscape:window-width="1920"
     inkscape:window-height="1009"
     inkscape:window-x="1912"
     inkscape:window-y="-8"
     inkscape:window-maximized="1"
     inkscape:current-layer="svg1" /><path
     id="path2"
     style="opacity:0.998192;fill:#8da5f3;fill-opacity:1;stroke:none;stroke-width:0.092645;stroke-linecap:round;stroke-dasharray:none"
     d="M 12.478893,3.6396203 C 12.204139,3.6861044 12.222312,4.0020496 12.106322,4.1783004 12.001426,4.2803765 11.898641,4.3280009 11.764151,4.158034 11.545734,3.9318441 11.643541,3.6329185 11.270889,3.6598865 L 5.5028295,3.6949907 C 2.7656641,4.0695546 0.77388274,6.2013765 0.83203506,7.9537672 0.81336439,8.5284952 1.0070277,9.1430416 1.3678209,9.7254229 L 2.2191778,10.213076 2.3420409,9.724699 2.9963466,9.7449652 3.1020203,9.0553747 3.5574642,9.0754599 V 8.5570458 C 3.912014,8.690532 4.2558736,8.9849247 4.229503,9.5636559 l -0.3675042,-0.04017 -0.070388,0.7096751 -0.5386809,-0.0152 -0.030037,0.573784 -0.770112,-0.256584 -0.047589,0.3818 c 0.808101,0.689667 1.878571,1.216556 3.097638,1.386961 l 5.7680591,0.03583 c 0.372658,0.02755 0.274845,-0.277776 0.493262,-0.508824 0.134494,-0.173618 0.237281,-0.124903 0.342171,-0.02063 0.115986,0.180036 0.09782,0.502598 0.372571,0.550079 l 1.887644,-3.6e-4 c 0.820668,-0.813795 0.811769,-2.8254451 0.799967,-4.4062494 0.01183,-1.5475682 0.02069,-3.5171002 -0.799967,-4.3137846 z m -0.332219,0.8155303 c 0.244243,2.3055009 0.52985,4.6018614 -0.05537,7.0916884 l -0.292048,-0.04288 c 0.446942,-2.4682823 0.407693,-4.9468509 0.0051,-7.0437377 z m 0.624087,0.2605639 h 1.721352 c 0.154365,0.4352196 0.193142,0.7774054 0.171177,1.1596916 H 12.951889 C 12.931799,5.4896828 12.895155,5.0684187 12.770761,4.7157145 Z m -1.201128,0.060617 c 0.105294,0.3172615 0.163374,0.6581507 0.113991,1.0527517 l -4.6657219,0.05537 C 7.0546137,5.3735823 6.9668297,5.0742231 6.8718769,4.7871887 Z M 4.8955699,4.9952781 C 4.8866668,5.2019214 4.8263123,5.3608447 4.7034037,5.6360127 4.8445957,6.1438873 4.8726802,7.099598 4.4898866,7.4722664 3.8452373,8.0998553 2.9511506,8.0599858 2.5680439,7.3443366 L 2.2191778,7.2446346 c 0.2499129,-0.114607 0.47837,-0.2416683 0.690314,-0.37818 C 2.9325587,7.1157989 3.0465972,7.2977967 3.180008,7.2981951 3.3319254,7.2981385 3.4550599,7.0644242 3.4550479,6.776162 3.4550211,6.6791059 3.4407342,6.5839843 3.4137922,6.5014838 3.9826726,6.0426532 4.4334491,5.5156968 4.8955699,4.9952781 Z m 4.0836206,2.00363 C 10.025211,7.0000381 10.132582,7.9589098 10.10812,8.2047413 10.11462,8.424074 10.01737,8.6646767 9.9622768,8.2499783 9.8984777,7.7697472 9.3771593,7.4779907 8.9605521,7.5605687 8.4363154,7.6728325 8.2067132,7.9986994 8.3666833,8.6073492 8.4336592,8.8561936 8.154252,9.0057738 8.0194451,8.6578335 7.7395292,7.7813899 8.182341,7.0408442 8.8751455,7.0018033 c 0.035723,-0.00201 0.070302,-0.00293 0.1040452,-0.00289 z m 0.044514,0.7241514 c 0.1220452,-0.00453 0.2560681,0.03994 0.3917504,0.1550718 C 9.664754,8.0568262 9.8780581,8.4192756 9.9244593,8.7074131 10.006422,9.2163767 9.8908316,9.4471015 9.7359128,9.6221019 9.1419095,9.9982898 8.5978754,10.200899 8.0132935,10.369414 7.7790377,11.223039 7.2211515,11.495665 6.6608927,11.494002 6.2284329,11.487464 5.5566925,11.177324 5.9562835,10.896152 5.3219549,10.656938 5.1498362,9.8750243 5.7212329,10.006434 5.5151783,9.9243002 5.2996441,9.8567627 5.2871398,9.4796964 5.3698793,8.8905027 5.7999904,8.7918711 5.8636384,8.8889032 5.9163646,8.9563262 5.7703059,9.3153511 5.9490461,9.2625594 6.2960601,9.2534441 6.577577,8.9791292 6.3797,8.9279878 6.2251783,9.0606375 6.1399301,9.0300255 6.0985085,8.9459017 6.0007985,8.4595997 6.3448396,8.3978789 6.6538358,8.4012502 7.6160269,8.4020191 7.7549333,8.9581595 7.7286629,9.2732353 8.189912,9.1958346 9.0613694,8.8650417 8.9990943,8.7678494 8.9343068,8.6698841 8.8886809,8.6588968 8.6538469,8.6647095 8.3055747,8.3809306 8.5878188,7.7392459 9.0237045,7.7230595 Z" /></svg>
